<?xml version="1.0" encoding="utf-8"?>
<!-- Generator: Adobe Illustrator 12.0.1, SVG Export Plug-In  -->
<!DOCTYPE svg PUBLIC "-//W3C//DTD SVG 1.1 Tiny//EN" "http://www.w3.org/Graphics/SVG/1.1/DTD/svg11-tiny.dtd" [
	<!ENTITY ns_flows "http://ns.adobe.com/Flows/1.0/">
	<!ENTITY ns_svg "http://www.w3.org/2000/svg">
	<!ENTITY ns_xlink "http://www.w3.org/1999/xlink">
]>
<svg  version="1.1" baseProfile="tiny"
	 xmlns="&ns_svg;" xmlns:xlink="&ns_xlink;" xmlns:a="http://ns.adobe.com/AdobeSVGViewerExtensions/3.0/" width="28" height="27"
	 viewBox="-0.391 -0.65 28 27" xml:space="preserve">
<defs>
</defs>
<path fill="#666666" d="M16.622,22.595c1.583,1.94,4.304,3.228,7.408,3.228c1.278,0,2.482-0.233,3.579-0.624v-1.424
	c-1.339,0.654-2.896,1.048-4.579,1.048C20.501,24.823,18.236,23.959,16.622,22.595z"/>
<path fill="#666666" d="M10.619,21.237c-3.237,0-6.131-1.042-8.079-2.68c1.861,2.203,5.225,3.68,9.079,3.68
	c1.438,0,2.801-0.215,4.053-0.587c-0.283-0.34-0.542-0.692-0.75-1.069C13.604,21,12.152,21.237,10.619,21.237z"/>
<path fill="#B3B3B3" d="M23.23,0.925c-0.436-0.016-0.875-0.029-1.32-0.029c-7.609,0-13.899,2.431-15.066,5.613
	C2.845,7.601,0,10.369,0,13.621c0,1.885,0.959,3.607,2.54,4.937c1.948,1.638,4.842,2.68,8.079,2.68c1.533,0,2.985-0.236,4.303-0.656
	c0.208,0.377,0.467,0.729,0.75,1.069c0.281,0.338,0.603,0.651,0.95,0.945c1.614,1.364,3.879,2.228,6.408,2.228
	c1.683,0,3.24-0.394,4.579-1.048V0.006C27.561,0.005,27.515,0,27.466,0C25.827,0,24.343,0.353,23.23,0.925z"/>
</svg>
