<?xml version="1.0" encoding="UTF-8" standalone="no"?>
<!-- Created with Inkscape (http://www.inkscape.org/) -->

<svg
   xmlns:dc="http://purl.org/dc/elements/1.1/"
   xmlns:cc="http://creativecommons.org/ns#"
   xmlns:rdf="http://www.w3.org/1999/02/22-rdf-syntax-ns#"
   xmlns:svg="http://www.w3.org/2000/svg"
   xmlns="http://www.w3.org/2000/svg"
   xmlns:xlink="http://www.w3.org/1999/xlink"
   version="1.1"
   width="28"
   height="41"
   viewBox="-0.391 -0.816 28 41"
   id="svg2"
   xml:space="preserve"><metadata
   id="metadata28"><rdf:RDF><cc:Work
       rdf:about=""><dc:format>image/svg+xml</dc:format><dc:type
         rdf:resource="http://purl.org/dc/dcmitype/StillImage" /><dc:title></dc:title></cc:Work></rdf:RDF></metadata>
<defs
   id="defs4"><linearGradient
     id="linearGradient3140"><stop
       id="stop3142"
       style="stop-color:#f8ed1a;stop-opacity:1"
       offset="0" /><stop
       id="stop3144"
       style="stop-color:#f2b219;stop-opacity:1"
       offset="1" /></linearGradient><radialGradient
     cx="3.5512688"
     cy="19.192116"
     r="8.6909876"
     fx="3.5512688"
     fy="19.192116"
     id="radialGradient3008"
     xlink:href="#linearGradient3140"
     gradientUnits="userSpaceOnUse"
     gradientTransform="matrix(-1.7416711,-0.01429077,0.01574088,-1.9184009,25.930216,56.76592)" /></defs>







<g
   transform="translate(7.564,0)"
   id="g3161"
   style="display:inline"><path
     d="M 19.864,35.803 C 11.079,35.764 3.99,28.61 4.029,19.825 4.069,11.04 11.223,3.95 20.008,3.989 c 0.013,0 0.024,0.002 0.037,0.002 l 0,-3.855 C 20.001,0.087 19.954,0.05 19.91,0 17.267,2.722 13.711,4.114 10.115,2.826 9.279,6.861 6.629,9.137 2.619,10.09 c 1.4,4.004 0.553,7.146 -2.619,9.853 3.027,2.8 4.161,5.888 2.906,9.816 4.036,0.836 6.311,3.484 7.264,7.496 3.55,-1.842 7.146,-0.551 9.875,2.539 l 0,-3.998 c -0.061,-10e-4 -0.12,0.007 -0.181,0.007 z"
     id="path6-1"
     style="fill:#f7931d" /><path
     d="m 20.045,3.1938752 c -9.1931,2.6e-6 -16.6875,7.5142178 -16.6875,16.7187498 0,9.204535 7.494399,16.687501 16.6875,16.6875 l 0,-1.5 c -8.380342,1e-6 -15.1875,-6.793397 -15.1875,-15.1875 0,-8.3941 6.807157,-15.2187474 15.1875,-15.2187498 l 0,-1.5 z"
     id="path2166"
     style="color:#000000;fill:#ca7b29;fill-opacity:1;fill-rule:nonzero;stroke:none;stroke-width:1.5;marker:none;visibility:visible;display:inline;overflow:visible;enable-background:accumulate" /><path
     d="m 20.045,35.837796 c -8.786722,0 -15.9179774,-7.141479 -15.9179774,-15.940798 0,-8.799317 7.1312524,-15.9407911 15.9179734,-15.9407936"
     id="path3151"
     style="color:#000000;fill:url(#radialGradient3008);fill-opacity:1;fill-rule:nonzero;stroke:#ca7b29;stroke-width:0;stroke-linecap:butt;stroke-linejoin:miter;stroke-miterlimit:4;stroke-opacity:1;stroke-dasharray:none;stroke-dashoffset:0;marker:none;visibility:visible;display:inline;overflow:visible;enable-background:accumulate" /></g><path
   d="m 14.922,27.415 c -1.317,0.42 -2.77,0.656 -4.303,0.656 -3.237,0 -6.131,-1.042 -8.079,-2.68 1.703,2.017 4.665,3.421 8.111,3.645 0.319,0.021 0.642,0.035 0.968,0.035 0.939,0 1.842,-0.098 2.708,-0.264 0.461,-0.088 0.91,-0.194 1.345,-0.323 -0.283,-0.34 -0.542,-0.692 -0.75,-1.069 z"
   id="path20"
   style="fill:#666666" />
<path
   d="m 16.622,29.429 c 1.583,1.94 4.304,3.228 7.408,3.228 1.278,0 2.482,-0.233 3.579,-0.624 v -1.424 c -1.339,0.654 -2.896,1.048 -4.579,1.048 -2.529,0 -4.794,-0.864 -6.408,-2.228 z"
   id="path22"
   style="fill:#666666" />
<path
   d="M 23.23,7.759 C 22.794,7.743 22.355,7.73 21.91,7.73 c -1.779,0 -3.48,0.138 -5.067,0.382 -1.262,0.194 -2.445,0.458 -3.53,0.783 -1.069,0.32 -2.039,0.698 -2.89,1.125 -0.074,0.037 -0.154,0.073 -0.228,0.111 C 8.477,11.032 7.288,12.132 6.843,13.343 2.845,14.435 0,17.203 0,20.455 c 0,1.885 0.959,3.607 2.54,4.937 1.948,1.638 4.842,2.68 8.079,2.68 1.533,0 2.985,-0.236 4.303,-0.656 0.208,0.377 0.467,0.729 0.75,1.069 0.281,0.338 0.603,0.651 0.95,0.945 1.614,1.364 3.879,2.228 6.408,2.228 1.683,0 3.24,-0.394 4.579,-1.048 V 6.84 C 27.56,6.839 27.514,6.834 27.465,6.834 c -1.638,0 -3.122,0.353 -4.235,0.925 z"
   id="path24"
   style="fill:#b3b3b3" />
</svg>