<?xml version="1.0" encoding="utf-8"?>
<!-- Generator: Adobe Illustrator 12.0.1, SVG Export Plug-In  -->
<!DOCTYPE svg PUBLIC "-//W3C//DTD SVG 1.1 Tiny//EN" "http://www.w3.org/Graphics/SVG/1.1/DTD/svg11-tiny.dtd" [
	<!ENTITY ns_flows "http://ns.adobe.com/Flows/1.0/">
	<!ENTITY ns_svg "http://www.w3.org/2000/svg">
	<!ENTITY ns_xlink "http://www.w3.org/1999/xlink">
]>
<svg  version="1.1" baseProfile="tiny"
	 xmlns="&ns_svg;" xmlns:xlink="&ns_xlink;" xmlns:a="http://ns.adobe.com/AdobeSVGViewerExtensions/3.0/" width="28" height="43"
	 viewBox="-0.391 -0.65 28 43" xml:space="preserve">
<defs>
</defs>
<path fill="none" d="M7.461,38.61c-0.556,0-1.006-0.377-1.006-1.131s0.668-1.453,1.006-2.408c0.308,0.955,1.005,1.654,1.005,2.408
	S8.016,38.61,7.461,38.61z M7.461,33.333c-0.556,0-1.006-0.377-1.006-1.131s0.668-1.453,1.006-2.408
	c0.308,0.955,1.005,1.654,1.005,2.408S8.016,33.333,7.461,33.333z M7.461,28.055c-0.556,0-1.006-0.377-1.006-1.129
	c0-0.756,0.668-1.455,1.006-2.408c0.308,0.953,1.005,1.652,1.005,2.408C8.466,27.678,8.016,28.055,7.461,28.055z M10.451,41.526
	c-0.555,0-1.006-0.377-1.006-1.131s0.668-1.453,1.006-2.408c0.309,0.955,1.006,1.654,1.006,2.408S11.006,41.526,10.451,41.526z
	 M10.451,36.249c-0.555,0-1.006-0.377-1.006-1.131s0.668-1.453,1.006-2.408c0.309,0.955,1.006,1.654,1.006,2.408
	S11.006,36.249,10.451,36.249z M10.451,30.971c-0.555,0-1.006-0.377-1.006-1.129c0-0.756,0.668-1.455,1.006-2.408
	c0.309,0.953,1.006,1.652,1.006,2.408C11.457,30.594,11.006,30.971,10.451,30.971z M13.442,38.61c-0.556,0-1.006-0.377-1.006-1.131
	s0.668-1.453,1.006-2.408c0.308,0.955,1.005,1.654,1.005,2.408S13.997,38.61,13.442,38.61z M13.442,33.333
	c-0.556,0-1.006-0.377-1.006-1.131s0.668-1.453,1.006-2.408c0.308,0.955,1.005,1.654,1.005,2.408S13.997,33.333,13.442,33.333z
	 M13.442,28.055c-0.556,0-1.006-0.377-1.006-1.129c0-0.756,0.668-1.455,1.006-2.408c0.308,0.953,1.005,1.652,1.005,2.408
	C14.447,27.678,13.997,28.055,13.442,28.055z"/>
<path d="M16.622,22.595c1.583,1.94,4.304,3.228,7.408,3.228c1.278,0,2.482-0.233,3.579-0.625v-1.423
	c-1.339,0.654-2.896,1.048-4.579,1.048C20.501,24.823,18.236,23.959,16.622,22.595z"/>
<path d="M10.619,21.237c-3.236,0-6.129-1.041-8.077-2.678c1.861,2.201,5.225,3.678,9.077,3.678c1.438,0,2.801-0.216,4.053-0.587
	c-0.283-0.34-0.542-0.692-0.75-1.069C13.604,20.999,12.152,21.237,10.619,21.237z"/>
<path fill="#666666" d="M23.23,0.925c-0.436-0.016-0.875-0.029-1.32-0.029c-7.609,0-13.899,2.431-15.066,5.613
	C2.845,7.601,0,10.369,0,13.621c0,1.886,0.96,3.608,2.542,4.938c1.948,1.637,4.841,2.678,8.077,2.678
	c1.533,0,2.985-0.238,4.303-0.656c0.208,0.377,0.467,0.729,0.75,1.069c0.281,0.338,0.603,0.651,0.95,0.945
	c1.614,1.364,3.879,2.228,6.408,2.228c1.683,0,3.24-0.394,4.579-1.048V0.006C27.561,0.005,27.515,0,27.466,0
	C25.827,0,24.343,0.353,23.23,0.925z"/>
<path fill="#00ADEF" d="M6.455,26.926c0,0.752,0.45,1.129,1.006,1.129c0.555,0,1.005-0.377,1.005-1.129
	c0-0.756-0.697-1.455-1.005-2.408C7.123,25.471,6.455,26.17,6.455,26.926z M7.271,27.426c-0.283,0-0.515-0.193-0.515-0.58
	s0.342-0.746,0.515-1.234C7.431,26.1,7.556,27.426,7.271,27.426z"/>
<path fill="#9DDCF9" d="M6.757,26.846c0,0.387,0.231,0.58,0.515,0.58c0.284,0,0.159-1.326,0-1.814
	C7.099,26.1,6.757,26.459,6.757,26.846z"/>
<path fill="#00ADEF" d="M6.455,32.202c0,0.754,0.45,1.131,1.006,1.131c0.555,0,1.005-0.377,1.005-1.131s-0.697-1.453-1.005-2.408
	C7.123,30.749,6.455,31.448,6.455,32.202z M7.271,32.702c-0.283,0-0.515-0.191-0.515-0.578c0-0.389,0.342-0.746,0.515-1.234
	C7.431,31.377,7.556,32.702,7.271,32.702z"/>
<path fill="#9DDCF9" d="M6.757,32.124c0,0.387,0.231,0.578,0.515,0.578c0.284,0,0.159-1.324,0-1.812
	C7.099,31.377,6.757,31.735,6.757,32.124z"/>
<path fill="#00ADEF" d="M6.455,37.479c0,0.754,0.45,1.131,1.006,1.131c0.555,0,1.005-0.377,1.005-1.131s-0.697-1.453-1.005-2.408
	C7.123,36.026,6.455,36.725,6.455,37.479z M7.271,37.979c-0.283,0-0.515-0.193-0.515-0.578c0-0.389,0.342-0.746,0.515-1.236
	C7.431,36.655,7.556,37.979,7.271,37.979z"/>
<path fill="#9DDCF9" d="M6.757,37.401c0,0.385,0.231,0.578,0.515,0.578c0.284,0,0.159-1.324,0-1.814
	C7.099,36.655,6.757,37.012,6.757,37.401z"/>
<path fill="#00ADEF" d="M12.437,26.926c0,0.752,0.45,1.129,1.006,1.129c0.555,0,1.005-0.377,1.005-1.129
	c0-0.756-0.697-1.455-1.005-2.408C13.104,25.471,12.437,26.17,12.437,26.926z M13.253,27.426c-0.283,0-0.515-0.193-0.515-0.58
	s0.342-0.746,0.515-1.234C13.412,26.1,13.537,27.426,13.253,27.426z"/>
<path fill="#9DDCF9" d="M12.738,26.846c0,0.387,0.231,0.58,0.515,0.58c0.284,0,0.159-1.326,0-1.814
	C13.08,26.1,12.738,26.459,12.738,26.846z"/>
<path fill="#00ADEF" d="M12.437,32.202c0,0.754,0.45,1.131,1.006,1.131c0.555,0,1.005-0.377,1.005-1.131s-0.697-1.453-1.005-2.408
	C13.104,30.749,12.437,31.448,12.437,32.202z M13.253,32.702c-0.283,0-0.515-0.191-0.515-0.578c0-0.389,0.342-0.746,0.515-1.234
	C13.412,31.377,13.537,32.702,13.253,32.702z"/>
<path fill="#9DDCF9" d="M12.738,32.124c0,0.387,0.231,0.578,0.515,0.578c0.284,0,0.159-1.324,0-1.812
	C13.08,31.377,12.738,31.735,12.738,32.124z"/>
<path fill="#00ADEF" d="M12.437,37.479c0,0.754,0.45,1.131,1.006,1.131c0.555,0,1.005-0.377,1.005-1.131s-0.697-1.453-1.005-2.408
	C13.104,36.026,12.437,36.725,12.437,37.479z M13.253,37.979c-0.283,0-0.515-0.193-0.515-0.578c0-0.389,0.342-0.746,0.515-1.236
	C13.412,36.655,13.537,37.979,13.253,37.979z"/>
<path fill="#9DDCF9" d="M12.738,37.401c0,0.385,0.231,0.578,0.515,0.578c0.284,0,0.159-1.324,0-1.814
	C13.08,36.655,12.738,37.012,12.738,37.401z"/>
<path fill="#00ADEF" d="M9.445,29.842c0,0.752,0.451,1.129,1.006,1.129s1.006-0.377,1.006-1.129c0-0.756-0.697-1.455-1.006-2.408
	C10.113,28.387,9.445,29.086,9.445,29.842z M10.262,30.342c-0.283,0-0.514-0.193-0.514-0.58s0.342-0.746,0.514-1.234
	C10.422,29.016,10.547,30.342,10.262,30.342z"/>
<path fill="#9DDCF9" d="M9.748,29.762c0,0.387,0.23,0.58,0.514,0.58c0.285,0,0.16-1.326,0-1.814
	C10.09,29.016,9.748,29.375,9.748,29.762z"/>
<path fill="#00ADEF" d="M9.445,35.118c0,0.754,0.451,1.131,1.006,1.131s1.006-0.377,1.006-1.131s-0.697-1.453-1.006-2.408
	C10.113,33.665,9.445,34.364,9.445,35.118z M10.262,35.618c-0.283,0-0.514-0.191-0.514-0.578c0-0.389,0.342-0.746,0.514-1.234
	C10.422,34.293,10.547,35.618,10.262,35.618z"/>
<path fill="#9DDCF9" d="M9.748,35.04c0,0.387,0.23,0.578,0.514,0.578c0.285,0,0.16-1.324,0-1.812
	C10.09,34.293,9.748,34.651,9.748,35.04z"/>
<path fill="#00ADEF" d="M9.445,40.395c0,0.754,0.451,1.131,1.006,1.131s1.006-0.377,1.006-1.131s-0.697-1.453-1.006-2.408
	C10.113,38.942,9.445,39.641,9.445,40.395z M10.262,40.895c-0.283,0-0.514-0.193-0.514-0.578c0-0.389,0.342-0.746,0.514-1.236
	C10.422,39.571,10.547,40.895,10.262,40.895z"/>
<path fill="#9DDCF9" d="M9.748,40.317c0,0.385,0.23,0.578,0.514,0.578c0.285,0,0.16-1.324,0-1.814
	C10.09,39.571,9.748,39.928,9.748,40.317z"/>
</svg>
