<?xml version="1.0" encoding="utf-8"?>
<!-- Generator: Adobe Illustrator 12.0.1, SVG Export Plug-In  -->
<!DOCTYPE svg PUBLIC "-//W3C//DTD SVG 1.1 Tiny//EN" "http://www.w3.org/Graphics/SVG/1.1/DTD/svg11-tiny.dtd" [
	<!ENTITY ns_flows "http://ns.adobe.com/Flows/1.0/">
	<!ENTITY ns_svg "http://www.w3.org/2000/svg">
	<!ENTITY ns_xlink "http://www.w3.org/1999/xlink">
]>
<svg  version="1.1" baseProfile="tiny"
	 xmlns="&ns_svg;" xmlns:xlink="&ns_xlink;" xmlns:a="http://ns.adobe.com/AdobeSVGViewerExtensions/3.0/" width="28" height="40"
	 viewBox="-0.391 -0.65 28 40" xml:space="preserve">
<defs>
</defs>
<path fill="none" d="M7.461,38.61c-0.556,0-1.006-0.377-1.006-1.131s0.668-1.453,1.006-2.408c0.308,0.955,1.005,1.654,1.005,2.408
	S8.016,38.61,7.461,38.61z M7.461,33.333c-0.556,0-1.006-0.377-1.006-1.131s0.668-1.453,1.006-2.408
	c0.308,0.955,1.005,1.654,1.005,2.408S8.016,33.333,7.461,33.333z M7.461,28.055c-0.556,0-1.006-0.377-1.006-1.129
	c0-0.756,0.668-1.455,1.006-2.408c0.308,0.953,1.005,1.652,1.005,2.408C8.466,27.678,8.016,28.055,7.461,28.055z"/>
<path fill="#00ADEF" d="M6.455,26.926c0,0.752,0.45,1.129,1.006,1.129c0.555,0,1.005-0.377,1.005-1.129
	c0-0.756-0.697-1.455-1.005-2.408C7.123,25.471,6.455,26.17,6.455,26.926z M7.271,27.426c-0.283,0-0.515-0.193-0.515-0.58
	s0.342-0.746,0.515-1.234C7.431,26.1,7.556,27.426,7.271,27.426z"/>
<path fill="#9DDCF9" d="M6.757,26.846c0,0.387,0.231,0.58,0.515,0.58c0.284,0,0.159-1.326,0-1.814
	C7.099,26.1,6.757,26.459,6.757,26.846z"/>
<path fill="#00ADEF" d="M6.455,32.202c0,0.754,0.45,1.131,1.006,1.131c0.555,0,1.005-0.377,1.005-1.131s-0.697-1.453-1.005-2.408
	C7.123,30.749,6.455,31.448,6.455,32.202z M7.271,32.702c-0.283,0-0.515-0.191-0.515-0.578c0-0.389,0.342-0.746,0.515-1.234
	C7.431,31.377,7.556,32.702,7.271,32.702z"/>
<path fill="#9DDCF9" d="M6.757,32.124c0,0.387,0.231,0.578,0.515,0.578c0.284,0,0.159-1.324,0-1.812
	C7.099,31.377,6.757,31.735,6.757,32.124z"/>
<path fill="#00ADEF" d="M6.455,37.479c0,0.754,0.45,1.131,1.006,1.131c0.555,0,1.005-0.377,1.005-1.131s-0.697-1.453-1.005-2.408
	C7.123,36.026,6.455,36.725,6.455,37.479z M7.271,37.979c-0.283,0-0.515-0.193-0.515-0.578c0-0.389,0.342-0.746,0.515-1.236
	C7.431,36.655,7.556,37.979,7.271,37.979z"/>
<path fill="#9DDCF9" d="M6.757,37.401c0,0.385,0.231,0.578,0.515,0.578c0.284,0,0.159-1.324,0-1.814
	C7.099,36.655,6.757,37.012,6.757,37.401z"/>
<path d="M16.622,22.595c1.583,1.94,4.304,3.228,7.408,3.228c1.278,0,2.482-0.233,3.579-0.624v-1.424
	c-1.339,0.654-2.896,1.048-4.579,1.048C20.501,24.823,18.236,23.959,16.622,22.595z"/>
<path d="M10.619,21.237c-3.237,0-6.131-1.042-8.079-2.68c1.861,2.203,5.225,3.68,9.079,3.68c1.438,0,2.801-0.215,4.053-0.587
	c-0.283-0.34-0.542-0.692-0.75-1.069C13.604,21,12.152,21.237,10.619,21.237z"/>
<path fill="#666666" d="M23.23,0.925c-0.436-0.016-0.875-0.029-1.32-0.029c-7.609,0-13.899,2.431-15.066,5.613
	C2.845,7.601,0,10.369,0,13.621c0,1.885,0.959,3.607,2.54,4.937c1.948,1.638,4.842,2.68,8.079,2.68c1.533,0,2.985-0.236,4.303-0.656
	c0.208,0.377,0.467,0.729,0.75,1.069c0.281,0.338,0.603,0.651,0.95,0.945c1.614,1.364,3.879,2.228,6.408,2.228
	c1.683,0,3.24-0.394,4.579-1.048V0.006C27.561,0.005,27.515,0,27.466,0C25.827,0,24.343,0.353,23.23,0.925z"/>
</svg>
