<?xml version="1.0" encoding="UTF-8" standalone="no"?>
<!-- Generator: Adobe Illustrator 12.0.1, SVG Export Plug-In  -->
<svg
   xmlns:dc="http://purl.org/dc/elements/1.1/"
   xmlns:cc="http://web.resource.org/cc/"
   xmlns:rdf="http://www.w3.org/1999/02/22-rdf-syntax-ns#"
   xmlns:svg="http://www.w3.org/2000/svg"
   xmlns="http://www.w3.org/2000/svg"
   xmlns:xlink="http://www.w3.org/1999/xlink"
   xmlns:sodipodi="http://sodipodi.sourceforge.net/DTD/sodipodi-0.dtd"
   xmlns:inkscape="http://www.inkscape.org/namespaces/inkscape"
   version="1.0"
   baseProfile="tiny"
   width="21"
   height="41"
   viewBox="-0.955 -0.816 21 41"
   xml:space="preserve"
   id="svg2"
   sodipodi:version="0.32"
   inkscape:version="0.45.1"
   sodipodi:docname="Weather_Forecast-Sunny.svg"
   sodipodi:docbase="/home/phsi/Drawing"
   inkscape:output_extension="org.inkscape.output.svg.inkscape"><metadata
     id="metadata13"><rdf:RDF><cc:Work
         rdf:about=""><dc:format>image/svg+xml</dc:format><dc:type
           rdf:resource="http://purl.org/dc/dcmitype/StillImage" /><cc:license
           rdf:resource="" /></cc:Work></rdf:RDF></metadata><sodipodi:namedview
     inkscape:window-height="949"
     inkscape:window-width="1280"
     inkscape:pageshadow="2"
     inkscape:pageopacity="0.0"
     guidetolerance="10.0"
     gridtolerance="10.0"
     objecttolerance="10.0"
     borderopacity="1.0"
     bordercolor="#666666"
     pagecolor="#ffffff"
     id="base"
     inkscape:zoom="17.585366"
     inkscape:cx="10.5"
     inkscape:cy="20.5"
     inkscape:window-x="0"
     inkscape:window-y="25"
     inkscape:current-layer="layer1" /><defs
     id="defs4"><linearGradient
       id="linearGradient3140"><stop
         style="stop-color:#f8ed1a;stop-opacity:1;"
         offset="0"
         id="stop3142" /><stop
         style="stop-color:#f2b219;stop-opacity:1"
         offset="1"
         id="stop3144" /></linearGradient><radialGradient
       inkscape:collect="always"
       xlink:href="#linearGradient3140"
       id="radialGradient3153"
       gradientUnits="userSpaceOnUse"
       gradientTransform="matrix(-1.7416711,-1.429077e-2,1.5740875e-2,-1.9184009,25.930216,56.76592)"
       cx="3.5512688"
       cy="19.192116"
       fx="3.5512688"
       fy="19.192116"
       r="8.6909876" /></defs><g
     inkscape:groupmode="layer"
     id="layer1"
     inkscape:label="sun"
     style="display:inline"><g
       id="g3161"><path
         style="fill:#f7931d"
         id="path6"
         d="M 19.864,35.803 C 11.079,35.764 3.99,28.61 4.029,19.825 C 4.069,11.04 11.223,3.95 20.008,3.989 C 20.021,3.989 20.032,3.991 20.045,3.991 L 20.045,0.136 C 20.001,0.087 19.954,0.05 19.91,0 C 17.267,2.722 13.711,4.114 10.115,2.826 C 9.279,6.861 6.629,9.137 2.619,10.09 C 4.019,14.094 3.172,17.236 0,19.943 C 3.027,22.743 4.161,25.831 2.906,29.759 C 6.942,30.595 9.217,33.243 10.17,37.255 C 13.72,35.413 17.316,36.704 20.045,39.794 L 20.045,35.796 C 19.984,35.795 19.925,35.803 19.864,35.803 z " /><path
         id="path2166"
         d="M 20.045,3.1938752 C 10.8519,3.1938778 3.3575,10.708093 3.3575,19.912625 C 3.3575,29.11716 10.851899,36.600126 20.045,36.600125 L 20.045,35.100125 C 11.664658,35.100126 4.8575,28.306728 4.8575,19.912625 C 4.8575,11.518525 11.664657,4.6938776 20.045,4.6938752 L 20.045,3.1938752 z "
         style="color:#000000;fill:#ca7b29;fill-opacity:1;fill-rule:nonzero;stroke:none;stroke-width:1.5;stroke-linecap:butt;stroke-linejoin:miter;marker:none;stroke-miterlimit:4;stroke-dashoffset:0;stroke-opacity:1;visibility:visible;display:inline;overflow:visible;enable-background:accumulate" /><path
         style="color:#000000;fill:url(#radialGradient3153);fill-opacity:1;fill-rule:nonzero;stroke:#ca7b29;stroke-width:0;stroke-linecap:butt;stroke-linejoin:miter;marker:none;marker-start:none;marker-mid:none;marker-end:none;stroke-miterlimit:4;stroke-dasharray:none;stroke-dashoffset:0;stroke-opacity:1;visibility:visible;display:inline;overflow:visible;enable-background:accumulate"
         d="M 20.045,35.837796 C 11.258278,35.837796 4.1270226,28.696317 4.1270226,19.896998 C 4.1270226,11.097681 11.258275,3.9562069 20.044996,3.9562044"
         id="path3151" /></g></g></svg>