<?xml version="1.0" encoding="UTF-8"?>
<svg version="1.1" xmlns="http://www.w3.org/2000/svg" width="512" height="512">
<path d="M0 0 C4.37828406 1.75830769 8.25718992 4.12718757 12.25 6.625 C34.01452137 19.52129825 53.28588621 23.07770481 78.35473633 23.40136719 C80.33697605 23.4290208 82.3189165 23.47599136 84.30078125 23.5234375 C85.46778564 23.54325684 86.63479004 23.56307617 87.8371582 23.58349609 C91.37510936 24.04939688 93.19230004 24.81864703 96 27 C97.6340332 29.18554687 97.6340332 29.18554687 99.05078125 31.71875 C99.84500488 33.1094873 99.84500488 33.1094873 100.65527344 34.52832031 C101.47560059 35.99930176 101.47560059 35.99930176 102.3125 37.5 C114.35571493 58.4555997 127.73004874 73.51341998 148.8125 85.75 C151.00851382 87.03303548 153.20259862 88.31937961 155.39453125 89.609375 C156.35206299 90.16592773 157.30959473 90.72248047 158.29614258 91.29589844 C165.64183654 95.92550962 165.64183654 95.92550962 167 100 C167.11715207 102.30278173 167.17876449 104.60852716 167.2109375 106.9140625 C167.23640075 108.32106005 167.26271887 109.72804233 167.28979492 111.13500977 C167.30303802 111.86889923 167.31628113 112.6027887 167.32992554 113.35891724 C167.90084458 142.06141814 174.6379783 162.61495943 188.67480469 187.59667969 C189.33077637 188.78632324 189.33077637 188.78632324 190 190 C190.38833008 190.64098633 190.77666016 191.28197266 191.17675781 191.94238281 C192.80875669 196.02141204 192.37318383 199.11677516 190.68652344 203.10864258 C190.08356445 204.19298584 189.48060547 205.2773291 188.859375 206.39453125 C188.53592102 206.98618576 188.21246704 207.57784027 187.87921143 208.18742371 C186.84784097 210.06918683 185.79988671 211.94101534 184.75 213.8125 C177.99254515 225.03163403 177.99254515 225.03163403 173 237 C174.10486898 240.31460693 174.87623086 240.96976106 177.5 243.125 C200.48161223 262.75342326 216.12910955 289.60051682 223 319 C223 320.32 223 321.64 223 323 C223.93005859 323.11214844 223.93005859 323.11214844 224.87890625 323.2265625 C247.72718234 326.61888297 268.92134352 340.54946455 282.76318359 358.79052734 C298.5775565 380.3577424 303.95788396 406.05392094 300.68359375 432.56152344 C299.85549529 437.17837334 298.53317478 441.56474438 297 446 C296.40445313 447.76923828 296.40445313 447.76923828 295.796875 449.57421875 C290.07136648 465.46431676 290.07136648 465.46431676 285 468 C283.96875 467.835 282.9375 467.67 281.875 467.5 C276.59023719 468.18190488 274.75205964 470.48184799 271.44140625 474.49609375 C269.86142966 477.24071433 269.71654219 478.0654605 270.4375 481.0625 C271 485 271 485 269.99609375 486.99609375 C258.65644249 501.01354217 237.42795608 508.61061758 220 511 C210.70322399 511.72062234 201.359269 511.5480833 192.04174805 511.51757812 C189.24412766 511.52080985 186.44653336 511.52999147 183.64892578 511.53881836 C176.87530005 511.55649208 170.10185283 511.55281332 163.32822045 511.5411678 C157.81533934 511.5320872 152.30250781 511.53092933 146.78962135 511.53526306 C146.00117046 511.53587599 145.21271957 511.53648893 144.40037623 511.53712043 C142.79797793 511.53839951 141.19557963 511.53969636 139.59318135 511.5410108 C124.60896079 511.55238453 109.62483852 511.53935463 94.6406341 511.51780933 C81.82523353 511.49995174 69.00997801 511.50303764 56.19458008 511.52148438 C41.26397327 511.54296614 26.33345244 511.55127525 11.40283233 511.53903532 C9.80583021 511.53776132 8.20882808 511.53650383 6.61182594 511.53526306 C5.82635533 511.53464596 5.04088472 511.53402886 4.23161196 511.53339306 C-1.26353943 511.5299612 -6.75863562 511.53572159 -12.25377846 511.54518127 C-18.96673048 511.55648475 -25.67949582 511.55318863 -32.39242689 511.5320583 C-35.80777277 511.52165678 -39.22255676 511.51944557 -42.63793755 511.53065491 C-78.20149085 511.63653275 -108.74730843 503.32531914 -134.75 477.8125 C-157.14858946 455.1303841 -167.43339029 425.61391882 -167.36791992 394.09106445 C-167.14265472 379.01964827 -164.28129146 364.74904908 -158 351 C-157.4740625 349.83984375 -156.948125 348.6796875 -156.40625 347.484375 C-153.11364099 340.56989608 -149.42669145 334.43010363 -144.69921875 328.40234375 C-143.00058268 326.00082379 -141.97126644 323.76589073 -141 321 C-143.63998684 319.19960636 -146.28709057 317.41001366 -148.9375 315.625 C-149.74131104 315.08351318 -150.54512207 314.54202637 -151.37329102 313.98413086 C-157.62109963 309.81912836 -164.00320603 305.96884553 -170.60327148 302.38720703 C-171.26915283 302.01321777 -171.93503418 301.63922852 -172.62109375 301.25390625 C-173.2030249 300.93752197 -173.78495605 300.6211377 -174.38452148 300.29516602 C-177.60711485 297.71153932 -178.87374423 294.97173085 -179.40063477 290.91650391 C-179.41408936 289.78132324 -179.42754395 288.64614258 -179.44140625 287.4765625 C-179.46630127 286.21521484 -179.49119629 284.95386719 -179.5168457 283.65429688 C-179.527556 282.66610962 -179.527556 282.66610962 -179.53848267 281.65795898 C-179.83489923 256.56763415 -184.06136816 236.01681407 -196.7421875 214.265625 C-197.20028809 213.47124023 -197.65838867 212.67685547 -198.13037109 211.85839844 C-199.02037967 210.3258703 -199.92619066 208.8023729 -200.85009766 207.29003906 C-203.5785236 202.60875858 -205.37248835 198.45841536 -204 193 C-202.07462395 188.55109473 -199.72489034 184.38809577 -197.3125 180.1875 C-188.51669022 164.73243234 -188.51669022 164.73243234 -182.75 148 C-182.27820313 146.1128125 -182.27820313 146.1128125 -181.796875 144.1875 C-180.23592265 136.71121693 -179.96419541 129.15572359 -179.82421875 121.5390625 C-179.80037109 120.24355469 -179.77652344 118.94804688 -179.75195312 117.61328125 C-179.71950977 115.60572581 -179.68732251 113.59810588 -179.67407227 111.59033203 C-179.6585817 109.61468919 -179.61672905 107.63930868 -179.57421875 105.6640625 C-179.55963623 104.50342285 -179.54505371 103.3427832 -179.5300293 102.14697266 C-178.88380889 98.31013199 -177.72810587 96.73898536 -175 94 C-172.70092773 92.3659668 -172.70092773 92.3659668 -170.18359375 90.94921875 C-169.25957764 90.41965576 -168.33556152 89.89009277 -167.38354492 89.34448242 C-166.4113501 88.79767822 -165.43915527 88.25087402 -164.4375 87.6875 C-156.60709341 83.16934714 -149.04517948 78.69270175 -142 73 C-141.23042969 72.39285156 -140.46085937 71.78570312 -139.66796875 71.16015625 C-128.7954377 62.10280074 -121.76928448 49.6998892 -114.64331055 37.67553711 C-113.62694767 35.96590777 -112.60071336 34.26215907 -111.57421875 32.55859375 C-110.98213623 31.56142334 -110.39005371 30.56425293 -109.7800293 29.53686523 C-107.97496872 26.96432587 -106.75441786 25.49386917 -104 24 C-101.04589844 23.59936523 -101.04589844 23.59936523 -97.609375 23.55859375 C-96.34996094 23.53369873 -95.09054688 23.50880371 -93.79296875 23.4831543 C-93.13216309 23.4760141 -92.47135742 23.4688739 -91.79052734 23.46151733 C-88.375104 23.42131725 -84.9612157 23.32702666 -81.546875 23.234375 C-79.58137695 23.18120117 -79.58137695 23.18120117 -77.57617188 23.12695312 C-60.200424 22.51011882 -45.20811609 18.19443616 -29.9375 9.9375 C-28.74346347 9.30545861 -27.54880268 8.67459512 -26.35351562 8.04492188 C-20.30575604 4.87851948 -20.30575604 4.87851948 -14.4777832 1.33666992 C-9.8241752 -1.17377484 -5.1195896 -0.81134299 0 0 Z " fill="#F5D68E" transform="translate(208,0)"/>
<path d="M0 0 C2.54319833 2.24729161 5.02094331 4.54843579 7.484375 6.8828125 C8.39316406 7.72714844 9.30195313 8.57148438 10.23828125 9.44140625 C17.05988666 15.97838278 22.44808852 22.90094888 27.484375 30.8828125 C28.16242188 31.93855469 28.84046875 32.99429688 29.5390625 34.08203125 C37.48811859 47.15003203 43.48052295 61.88156667 45.62109375 77.0703125 C46.77095866 80.81647871 48.43359305 82.46382369 51.484375 84.8828125 C54.07404234 85.68632033 54.07404234 85.68632033 56.859375 85.8203125 C76.04257887 88.36550417 94.23631479 100.00148724 106.09375 115.08984375 C117.47711716 130.88522067 123.85714685 148.36371278 122.484375 167.8828125 C122.401875 169.15898437 122.319375 170.43515625 122.234375 171.75 C121.28404305 182.95376917 117.98314193 193.17416764 112.78125 203.1484375 C111.15276098 206.58199868 111.46360447 208.27085524 112.484375 211.8828125 C113.144375 213.2028125 113.804375 214.5228125 114.484375 215.8828125 C111.514375 219.1828125 108.544375 222.4828125 105.484375 225.8828125 C104.164375 225.2228125 102.844375 224.5628125 101.484375 223.8828125 C97.81390833 223.23544234 96.60686596 223.80365487 93.42578125 225.859375 C92.29411115 226.73529571 91.16807826 227.61853327 90.046875 228.5078125 C74.82216056 239.97086504 57.81512329 244.03327811 39.05154419 244.02998352 C37.91809787 244.03366021 36.78465154 244.0373369 35.61685836 244.041125 C31.82806369 244.0521165 28.03929648 244.05599799 24.25048828 244.05981445 C21.52977771 244.06555497 18.8090712 244.07271751 16.08836365 244.07972717 C7.93136603 244.09943106 -0.22563272 244.10955005 -8.38264817 244.11845496 C-12.2326094 244.12284783 -16.08256928 244.12821203 -19.93252945 244.13344383 C-32.74545188 244.15045002 -45.55837349 244.16494159 -58.37130547 244.17219257 C-61.69154741 244.17410218 -65.01178934 244.17602255 -68.33203125 244.17797852 C-69.15716717 244.17846226 -69.98230309 244.178946 -70.83244313 244.1794444 C-84.1828943 244.18773514 -97.5332556 244.21305861 -110.88366757 244.24555919 C-124.61818025 244.27871981 -138.35264739 244.29664944 -152.08720028 244.29983681 C-159.78730483 244.3019936 -167.4872783 244.31061951 -175.1873436 244.33629799 C-181.74829849 244.35812843 -188.30909045 244.36599535 -194.87007754 244.35633121 C-198.21020503 244.35182177 -201.54972783 244.35570796 -204.88985252 244.37309265 C-236.85563458 244.53005558 -263.10070158 237.57792814 -286.515625 214.8828125 C-287.11503906 214.356875 -287.71445312 213.8309375 -288.33203125 213.2890625 C-302.20935533 200.66745916 -308.91518426 182.55240981 -313.515625 164.8828125 C-313.80252197 163.80193359 -313.80252197 163.80193359 -314.09521484 162.69921875 C-315.46741138 157.12749094 -315.83137494 151.85974368 -315.765625 146.1328125 C-315.75740723 145.25447754 -315.74918945 144.37614258 -315.74072266 143.47119141 C-315.31880854 118.76880023 -306.16436589 96.13239386 -289.515625 77.8828125 C-288.81953125 77.10550781 -288.1234375 76.32820313 -287.40625 75.52734375 C-271.96744811 59.15883299 -248.96448323 47.91716635 -226.515625 45.8828125 C-224.66566378 45.9689174 -222.8166421 46.07647769 -220.96875 46.19921875 C-210.17591967 47.11028937 -210.17591967 47.11028937 -200.50732422 43.29882812 C-197.07182813 39.07148072 -194.91255932 34.18439458 -192.68115234 29.24804688 C-190.89477054 25.6228967 -188.55893905 22.56884356 -186.015625 19.4453125 C-185.55937744 18.87949463 -185.10312988 18.31367676 -184.63305664 17.73071289 C-172.18443084 2.59479275 -157.72365307 -8.12564563 -140.515625 -17.1171875 C-139.49339844 -17.67277344 -138.47117188 -18.22835937 -137.41796875 -18.80078125 C-93.14778538 -41.25667137 -37.14138468 -31.258743 0 0 Z " fill="#EAEBEB" transform="translate(371.515625,252.1171875)"/>
<path d="M0 0 C4.37828406 1.75830769 8.25718992 4.12718757 12.25 6.625 C34.01452137 19.52129825 53.28588621 23.07770481 78.35473633 23.40136719 C80.33697605 23.4290208 82.3189165 23.47599136 84.30078125 23.5234375 C85.46778564 23.54325684 86.63479004 23.56307617 87.8371582 23.58349609 C91.37510936 24.04939688 93.19230004 24.81864703 96 27 C97.6340332 29.18554687 97.6340332 29.18554687 99.05078125 31.71875 C99.84500488 33.1094873 99.84500488 33.1094873 100.65527344 34.52832031 C101.47560059 35.99930176 101.47560059 35.99930176 102.3125 37.5 C114.35571493 58.4555997 127.73004874 73.51341998 148.8125 85.75 C151.00851382 87.03303548 153.20259862 88.31937961 155.39453125 89.609375 C156.35206299 90.16592773 157.30959473 90.72248047 158.29614258 91.29589844 C165.64183654 95.92550962 165.64183654 95.92550962 167 100 C167.11715207 102.30278173 167.17876449 104.60852716 167.2109375 106.9140625 C167.23640075 108.32106005 167.26271887 109.72804233 167.28979492 111.13500977 C167.30303802 111.86889923 167.31628113 112.6027887 167.32992554 113.35891724 C167.90084458 142.06141814 174.6379783 162.61495943 188.67480469 187.59667969 C189.33077637 188.78632324 189.33077637 188.78632324 190 190 C190.38833008 190.64098633 190.77666016 191.28197266 191.17675781 191.94238281 C192.80875669 196.02141204 192.37318383 199.11677516 190.68652344 203.10864258 C190.08356445 204.19298584 189.48060547 205.2773291 188.859375 206.39453125 C188.53592102 206.98618576 188.21246704 207.57784027 187.87921143 208.18742371 C186.84784097 210.06918683 185.79988671 211.94101534 184.75 213.8125 C177.99254515 225.03163403 177.99254515 225.03163403 173 237 C174.10486898 240.31460693 174.87623086 240.96976106 177.5 243.125 C200.48161223 262.75342326 216.12910955 289.60051682 223 319 C223 320.32 223 321.64 223 323 C223.93005859 323.11214844 223.93005859 323.11214844 224.87890625 323.2265625 C247.72718234 326.61888297 268.92134352 340.54946455 282.76318359 358.79052734 C298.5775565 380.3577424 303.95788396 406.05392094 300.68359375 432.56152344 C299.85549529 437.17837334 298.53317478 441.56474438 297 446 C296.40445313 447.76923828 296.40445313 447.76923828 295.796875 449.57421875 C290.07136648 465.46431676 290.07136648 465.46431676 285 468 C282.1875 468.4375 282.1875 468.4375 279 468 C276.0625 465.375 276.0625 465.375 274 462 C273.80653489 457.84050009 275.58003177 454.68621745 277.3125 451 C281.9506681 441.10524138 284.62251602 430.91683671 285 420 C285.06316406 418.93394531 285.12632812 417.86789062 285.19140625 416.76953125 C285.88443617 396.98464483 277.86371077 377.8960385 265 363 C252.29919815 349.491516 235.86372282 341.12652647 217.5390625 338.515625 C214.12012845 337.82131839 212.26406292 336.64140674 210 334 C208.31013115 330.35543211 207.55570431 326.88270878 206.875 322.9375 C200.33902846 291.6370936 179.99370101 262.82790549 153.4375 245.19921875 C152.29350183 244.46328524 151.14770083 243.73014569 150 243 C148.9275 242.30519531 147.855 241.61039063 146.75 240.89453125 C119.45480899 224.2534773 85.19926884 218.05401255 53.859375 225.03515625 C52.58578125 225.35355469 51.3121875 225.67195312 50 226 C49.35482422 226.16097168 48.70964844 226.32194336 48.04492188 226.48779297 C25.84959995 232.22397225 6.97595165 243.86049694 -10 259 C-10.72960937 259.64453125 -11.45921875 260.2890625 -12.2109375 260.953125 C-22.18816072 270.31949781 -29.50349767 282.39787956 -36.3203125 294.1484375 C-38 297 -38 297 -39 298 C-40.63852362 298.13376855 -42.28235743 298.2035284 -43.92578125 298.24609375 C-45.45307861 298.29286255 -45.45307861 298.29286255 -47.01123047 298.34057617 C-48.10064941 298.37256104 -49.19006836 298.4045459 -50.3125 298.4375 C-76.85754661 299.4382138 -100.07666589 306.87303208 -120 325 C-121.05574219 325.93392578 -121.05574219 325.93392578 -122.1328125 326.88671875 C-139.87308194 343.4790884 -150.02429729 368.469633 -151.2734375 392.453125 C-151.64546764 404.99380414 -149.75181746 416.05489488 -146 428 C-145.62746094 429.19367188 -145.25492188 430.38734375 -144.87109375 431.6171875 C-139.884927 445.8286314 -131.63681572 457.50273435 -121 468 C-119.89011719 469.10794922 -119.89011719 469.10794922 -118.7578125 470.23828125 C-107.70837634 480.66036847 -93.53084902 487.81585321 -79 492 C-77.72778737 492.38483189 -77.72778737 492.38483189 -76.42987347 492.77743816 C-63.80263218 496.04580799 -50.9218775 495.4126981 -37.97387695 495.37231445 C-35.24092024 495.37308731 -32.50797617 495.37835195 -29.77502441 495.38337708 C-23.15041168 495.39281548 -16.52590868 495.38630951 -9.90130416 495.37411413 C-2.17447642 495.36042463 5.55232583 495.36213803 13.27916262 495.36424746 C27.0706523 495.36742995 40.86209015 495.35581112 54.65356445 495.33618164 C68.01490862 495.31716957 81.3761921 495.31009793 94.73754883 495.31567383 C109.31644774 495.3217399 123.89532005 495.32154024 138.47421676 495.310188 C140.03038108 495.3089808 141.58654541 495.30777481 143.14270973 495.30657005 C143.90821884 495.30596651 144.67372794 495.30536298 145.46243429 495.30474115 C150.84003279 495.30087253 156.21762135 495.30125147 161.59522057 495.3031559 C168.15218344 495.30528409 174.70909336 495.30000641 181.26604136 495.28554235 C184.60720776 495.27832948 187.94823319 495.27527425 191.28941536 495.27878571 C194.9195244 495.28202142 198.5494037 495.27289054 202.17948914 495.26069641 C203.22347278 495.26447573 204.26745642 495.26825506 205.34307593 495.27214891 C223.34242523 495.16558922 241.87625256 489.81080802 255.75 478.0625 C258.88941903 475.52400733 259.61227501 475.01906844 263.8125 474.8125 C267.30993155 476.11546469 268.9996582 476.83279215 271 480 C271.36532048 483.79933304 270.84180629 485.97043789 268.40625 488.94921875 C247.84074767 508.47877227 221.38406373 511.46944778 194.40442419 511.40683305 C190.93320232 511.40206024 187.46203369 511.41464743 183.99082947 511.42485046 C177.20679771 511.44196611 170.42285888 511.44289331 163.63881116 511.43763756 C158.11728229 511.43357977 152.59578067 511.43505843 147.07425308 511.44038582 C146.28539572 511.44113424 145.49653836 511.44188266 144.68377624 511.44265376 C143.08065333 511.44418541 141.47753044 511.44572376 139.87440754 511.44726873 C124.87019105 511.46096852 109.86602682 511.45557467 94.86181153 511.44408352 C81.17682449 511.43416178 67.49197286 511.44707796 53.8070067 511.47101771 C39.71293822 511.49548484 25.6189326 511.50499746 11.52484334 511.49836498 C3.62916129 511.49488858 -4.26641683 511.49699911 -12.16208267 511.51461601 C-18.88607761 511.52943399 -25.60989548 511.52985002 -32.33388729 511.5125451 C-35.75529519 511.50410907 -39.17613257 511.5039213 -42.59756279 511.51719666 C-78.17953678 511.64461852 -108.73330606 503.33905772 -134.75 477.8125 C-157.14858946 455.1303841 -167.43339029 425.61391882 -167.36791992 394.09106445 C-167.14265472 379.01964827 -164.28129146 364.74904908 -158 351 C-157.4740625 349.83984375 -156.948125 348.6796875 -156.40625 347.484375 C-153.11364099 340.56989608 -149.42669145 334.43010363 -144.69921875 328.40234375 C-143.00058268 326.00082379 -141.97126644 323.76589073 -141 321 C-143.63998684 319.19960636 -146.28709057 317.41001366 -148.9375 315.625 C-149.74131104 315.08351318 -150.54512207 314.54202637 -151.37329102 313.98413086 C-157.62109963 309.81912836 -164.00320603 305.96884553 -170.60327148 302.38720703 C-171.26915283 302.01321777 -171.93503418 301.63922852 -172.62109375 301.25390625 C-173.2030249 300.93752197 -173.78495605 300.6211377 -174.38452148 300.29516602 C-177.60711485 297.71153932 -178.87374423 294.97173085 -179.40063477 290.91650391 C-179.41408936 289.78132324 -179.42754395 288.64614258 -179.44140625 287.4765625 C-179.46630127 286.21521484 -179.49119629 284.95386719 -179.5168457 283.65429688 C-179.527556 282.66610962 -179.527556 282.66610962 -179.53848267 281.65795898 C-179.83489923 256.56763415 -184.06136816 236.01681407 -196.7421875 214.265625 C-197.20028809 213.47124023 -197.65838867 212.67685547 -198.13037109 211.85839844 C-199.02037967 210.3258703 -199.92619066 208.8023729 -200.85009766 207.29003906 C-203.5785236 202.60875858 -205.37248835 198.45841536 -204 193 C-202.07462395 188.55109473 -199.72489034 184.38809577 -197.3125 180.1875 C-188.51669022 164.73243234 -188.51669022 164.73243234 -182.75 148 C-182.27820313 146.1128125 -182.27820313 146.1128125 -181.796875 144.1875 C-180.23592265 136.71121693 -179.96419541 129.15572359 -179.82421875 121.5390625 C-179.80037109 120.24355469 -179.77652344 118.94804688 -179.75195312 117.61328125 C-179.71950977 115.60572581 -179.68732251 113.59810588 -179.67407227 111.59033203 C-179.6585817 109.61468919 -179.61672905 107.63930868 -179.57421875 105.6640625 C-179.55963623 104.50342285 -179.54505371 103.3427832 -179.5300293 102.14697266 C-178.88380889 98.31013199 -177.72810587 96.73898536 -175 94 C-172.70092773 92.3659668 -172.70092773 92.3659668 -170.18359375 90.94921875 C-169.25957764 90.41965576 -168.33556152 89.89009277 -167.38354492 89.34448242 C-166.4113501 88.79767822 -165.43915527 88.25087402 -164.4375 87.6875 C-156.60709341 83.16934714 -149.04517948 78.69270175 -142 73 C-141.23042969 72.39285156 -140.46085937 71.78570312 -139.66796875 71.16015625 C-128.7954377 62.10280074 -121.76928448 49.6998892 -114.64331055 37.67553711 C-113.62694767 35.96590777 -112.60071336 34.26215907 -111.57421875 32.55859375 C-110.98213623 31.56142334 -110.39005371 30.56425293 -109.7800293 29.53686523 C-107.97496872 26.96432587 -106.75441786 25.49386917 -104 24 C-101.04589844 23.59936523 -101.04589844 23.59936523 -97.609375 23.55859375 C-96.34996094 23.53369873 -95.09054688 23.50880371 -93.79296875 23.4831543 C-93.13216309 23.4760141 -92.47135742 23.4688739 -91.79052734 23.46151733 C-88.375104 23.42131725 -84.9612157 23.32702666 -81.546875 23.234375 C-79.58137695 23.18120117 -79.58137695 23.18120117 -77.57617188 23.12695312 C-60.200424 22.51011882 -45.20811609 18.19443616 -29.9375 9.9375 C-28.74346347 9.30545861 -27.54880268 8.67459512 -26.35351562 8.04492188 C-20.30575604 4.87851948 -20.30575604 4.87851948 -14.4777832 1.33666992 C-9.8241752 -1.17377484 -5.1195896 -0.81134299 0 0 Z M-11.5859375 17.44921875 C-12.51092041 17.96548828 -13.43590332 18.48175781 -14.38891602 19.01367188 C-15.37432373 19.56603516 -16.35973145 20.11839844 -17.375 20.6875 C-25.1031909 24.95424121 -32.65154321 29.07261905 -41 32 C-42.02738281 32.36480469 -43.05476562 32.72960937 -44.11328125 33.10546875 C-54.31048692 36.48825434 -64.45808502 38.43023391 -75.21875 37.60546875 C-88.12745782 36.31715545 -88.12745782 36.31715545 -99.55712891 41.13476562 C-103.91913012 46.59940308 -106.70482062 52.69273598 -109.51098633 59.05419922 C-111.97621426 63.93130043 -115.42990099 67.89762997 -119 72 C-119.75667969 72.928125 -120.51335937 73.85625 -121.29296875 74.8125 C-125.09605416 79.2036914 -129.09650791 83.10816405 -133.625 86.75 C-134.1418335 87.16596436 -134.65866699 87.58192871 -135.19116211 88.01049805 C-138.90224282 90.83215058 -142.65768177 92.81728493 -146.9140625 94.72265625 C-156.3564181 99.11054015 -156.3564181 99.11054015 -164 106 C-166.78419771 114.2547934 -165.77404593 122.92261315 -165.11987305 131.46582031 C-164.38432624 153.15171766 -175.1848767 175.92554556 -186.98046875 193.5546875 C-188.25187588 195.93549818 -188.25187588 195.93549818 -187.46484375 198.31640625 C-185.90451806 201.17492292 -184.31359851 204.0102777 -182.67382812 206.82397461 C-174.95883417 220.12073769 -167.68534911 234.54542096 -166 250 C-165.90025879 250.79801025 -165.80051758 251.59602051 -165.69775391 252.41821289 C-165.12722546 257.55542387 -165.02663657 262.36819809 -165.45703125 267.5234375 C-166.60295693 279.64759253 -166.60295693 279.64759253 -162.00732422 290.34521484 C-156.74771348 294.42466015 -150.80859259 297.03164736 -144.73681641 299.67675781 C-139.68477403 302.11940453 -135.74551087 305.78921908 -131.55859375 309.46484375 C-129.10647274 311.33102826 -129.10647274 311.33102826 -126.3984375 310.44921875 C-124.11185823 309.0675886 -122.16921854 307.66243241 -120.1875 305.875 C-119.58292969 305.33617187 -118.97835937 304.79734375 -118.35546875 304.2421875 C-117.90816406 303.83226562 -117.46085937 303.42234375 -117 303 C-119.14770819 299.56366689 -121.34940797 296.57775748 -124.125 293.625 C-150.90675967 263.45967755 -160.12486798 221.08834888 -158.13476562 181.95983887 C-156.30659608 155.37355075 -145.57196038 130.36688367 -130.875 108.5 C-130.39651611 107.76305908 -129.91803223 107.02611816 -129.42504883 106.2668457 C-126.8511175 102.58773343 -125.74940501 101.20882474 -121.28515625 99.96484375 C-118 100 -118 100 -115.5625 101.0625 C-113.34897156 103.80727526 -113.69084206 105.53573703 -114 109 C-115.25 111.53515625 -115.25 111.53515625 -117 114.0625 C-117.639375 115.01769531 -118.27875 115.97289063 -118.9375 116.95703125 C-119.618125 117.96121094 -120.29875 118.96539062 -121 120 C-129.02258184 132.33158575 -135.22145203 144.51758907 -139.3125 158.625 C-139.55500488 159.45902344 -139.79750977 160.29304687 -140.04736328 161.15234375 C-143.25021548 172.79578666 -144.36702038 184.25948671 -144.3125 196.3125 C-144.30831055 197.58488525 -144.30412109 198.85727051 -144.29980469 200.16821289 C-144.1879509 209.4871801 -143.40605016 217.99273529 -141 227 C-140.69835937 228.19109375 -140.39671875 229.3821875 -140.0859375 230.609375 C-133.46647057 255.25747137 -121.39242367 276.38275776 -104 295 C-100.40083583 293.86342184 -96.93388042 292.55746974 -93.4609375 291.08984375 C-88.06932821 288.92828516 -82.6714072 287.52783617 -77 286.3125 C-75.50593628 285.97375854 -75.50593628 285.97375854 -73.98168945 285.62817383 C-68.33896014 284.42497462 -63.22773029 283.89457227 -57.47241211 284.11450195 C-51.00253764 284.44953458 -51.00253764 284.44953458 -45.41210938 281.58154297 C-42.36226906 277.72752109 -40.22320124 273.40456534 -38.05615234 269.01367188 C-24.55170299 243.26593764 7.74483313 223.64767233 34.4921875 214.8515625 C63.80216083 206.16954367 93.80773458 204.89207304 123.08203125 214.23046875 C125.87131222 214.96606226 128.13366228 215.15364842 131 215 C135.61582078 189.69932815 130.71650381 163.12564924 120 140 C119.67016113 139.2879541 119.34032227 138.5759082 119.00048828 137.84228516 C106.04432808 110.53279212 84.28502302 87.30880979 57 74 C56.03191406 73.51144531 55.06382812 73.02289063 54.06640625 72.51953125 C20.5054397 56.22088457 -17.13651322 54.12651078 -52.47998047 66.04003906 C-66.79643701 71.23238823 -80.22995207 78.90088582 -91.94140625 88.609375 C-95.04374689 91.08014294 -97.38658325 92.33114337 -101.3125 92.5 C-102.529375 92.335 -103.74625 92.17 -105 92 C-107.33101195 88.50348207 -107.50126204 87.11452595 -107 83 C-91.3193536 61.7406621 -53.76491732 49.55274416 -29.03515625 45.6640625 C-7.899507 42.98189186 13.51387005 44.16981054 34 50 C34.90637207 50.25168945 35.81274414 50.50337891 36.74658203 50.76269531 C73.02364855 61.09415434 102.75251219 84.42645131 123 116 C123.37398926 116.58120605 123.74797852 117.16241211 124.13330078 117.76123047 C144.04251398 149.22826103 148.52229915 185.56913148 145 222 C146.76537096 223.17491582 148.53749713 224.33968684 150.3125 225.5 C151.79169922 226.47453125 151.79169922 226.47453125 153.30078125 227.46875 C155.91767639 229.2467127 155.91767639 229.2467127 159 229 C159.41362793 228.19780029 159.82725586 227.39560059 160.25341797 226.5690918 C161.79139172 223.58837686 163.33094881 220.60849102 164.87158203 217.62915039 C165.53758204 216.34041607 166.20295243 215.05135617 166.86767578 213.76196289 C167.82418441 211.90685087 168.78296393 210.0529281 169.7421875 208.19921875 C170.60626221 206.52605591 170.60626221 206.52605591 171.48779297 204.8190918 C173 202 173 202 175 199 C174.95252273 192.81846002 171.31447521 187.87142705 168.3125 182.6875 C158.02136424 164.36396189 151.81663175 145.08341528 152 123.88671875 C151.99871094 122.86642578 151.99742187 121.84613281 151.99609375 120.79492188 C151.99872281 118.70350367 152.03317674 116.61191002 152.09765625 114.52148438 C152.10998907 108.79319761 152.10998907 108.79319761 149.20654297 104.10522461 C146.87340324 102.53236921 144.51779795 101.25315172 142 100 C140.66155187 99.19366584 139.33026786 98.37527279 138.0078125 97.54296875 C137.37101562 97.15737793 136.73421875 96.77178711 136.078125 96.37451172 C128.54205355 91.7944643 121.59456203 86.88838982 115 81 C114.33097656 80.42507812 113.66195313 79.85015625 112.97265625 79.2578125 C108.36654722 75.01906186 104.75367758 70.13149045 101.125 65.0625 C100.33536865 63.97678711 100.33536865 63.97678711 99.52978516 62.86914062 C96.85583627 59.07918774 94.67206676 55.46992173 92.95703125 51.15234375 C90.11987087 44.25013481 90.11987087 44.25013481 85 39 C77.29486917 36.81859601 69.08750285 37.5364655 61.171875 37.89697266 C37.68234162 38.65994857 17.2844566 28.07052099 -2.3046875 16.46875 C-6.43769701 14.21655931 -7.66752687 15.23892053 -11.5859375 17.44921875 Z " fill="#020101" transform="translate(208,0)"/>
<path d="M0 0 C3.99781557 1.06800849 7.51065035 3.37205416 11.07666016 5.42724609 C29.52026314 16.04201569 49.86640593 24.31644042 71.5234375 22.54296875 C88.94867245 21.41052958 88.94867245 21.41052958 94.32910156 25.9765625 C98.39281629 31.2274992 101.01262483 37.18656099 103.67773438 43.23339844 C105.56129532 47.17440889 107.97731059 50.45769373 110.75 53.8125 C111.43195435 54.64575806 111.43195435 54.64575806 112.12768555 55.49584961 C124.29650982 70.07311016 139.30109351 79.4377604 155.45629883 89.03540039 C157 90 157 90 158 91 C158.14591887 92.64986099 158.22734048 94.30551388 158.28125 95.9609375 C158.31863281 96.99089844 158.35601562 98.02085938 158.39453125 99.08203125 C158.42933594 100.16871094 158.46414063 101.25539063 158.5 102.375 C159.04422187 118.98477984 159.04422187 118.98477984 162.1875 135.25 C162.41034668 136.06863525 162.63319336 136.88727051 162.86279297 137.73071289 C166.44212942 150.4869116 171.65040261 161.78551692 178.48095703 173.12475586 C181.96698051 179.11302806 181.96698051 179.11302806 182.11328125 183.04296875 C180.55049874 187.19393844 178.48292027 190.92523143 176.25 194.75 C175.33956391 196.34545249 174.43069733 197.94180168 173.5234375 199.5390625 C173.08741211 200.30379883 172.65138672 201.06853516 172.20214844 201.85644531 C169.97642952 205.82513177 167.95978088 209.89477479 166 214 C160.70888218 213.02336844 156.50378992 209.78523851 152 207 C152.10393066 205.90836548 152.10393066 205.90836548 152.20996094 204.79467773 C156.02843067 162.37365324 147.59713055 120.84408994 120.4375 87.0625 C118.97219262 85.36295166 117.49294167 83.67532547 116 82 C115.20980469 81.07832031 114.41960937 80.15664062 113.60546875 79.20703125 C107.92272235 72.71885622 101.84670289 67.23173201 95 62 C93.72382812 61.00033203 93.72382812 61.00033203 92.421875 59.98046875 C77.74756222 48.84292896 61.26602931 40.95480493 43.625 35.8125 C42.81200439 35.57442627 41.99900879 35.33635254 41.16137695 35.09106445 C27.82835262 31.37231204 14.92470873 29.40636702 1.0625 29.5 C0.35510681 29.50176239 -0.35228638 29.50352478 -1.08111572 29.50534058 C-37.12630963 29.70354627 -70.95162412 43.03523776 -98.55859375 66.015625 C-100.55908687 68.7696914 -100.32142065 70.67131491 -100 74 C-99.67 74.99 -99.34 75.98 -99 77 C-99.721875 77.556875 -100.44375 78.11375 -101.1875 78.6875 C-104.0823699 80.92599672 -104.0823699 80.92599672 -106.375 83.8125 C-107.24125 84.534375 -108.1075 85.25625 -109 86 C-111.33333333 85.66666667 -113.66666667 85.33333333 -116 85 C-120.05147167 88.41658838 -122.93194114 92.48204719 -125.8125 96.875 C-126.24409424 97.53282471 -126.67568848 98.19064941 -127.12036133 98.8684082 C-149.18536888 133.00066146 -156.96221845 174.78943057 -148.41918945 214.71435547 C-147.82336197 217.04382413 -147.1589396 219.33149031 -146.4375 221.625 C-146.18137939 222.45346436 -145.92525879 223.28192871 -145.66137695 224.13549805 C-138.07748371 247.82488741 -126.49185833 268.39380086 -110 287 C-113.16952847 290.26008643 -116.39937989 293.22237877 -120 296 C-123.78489294 294.3188461 -126.94653262 291.89286163 -130.25 289.4375 C-136.77863511 284.665193 -143.60187686 280.67250482 -150.69921875 276.8125 C-154 275 -154 275 -157 273 C-157.40063477 270.54833984 -157.40063477 270.54833984 -157.44140625 267.4609375 C-157.46638184 266.33051025 -157.49135742 265.20008301 -157.51708984 264.03540039 C-157.5320752 262.82746826 -157.54706055 261.61953613 -157.5625 260.375 C-157.81733026 250.11100327 -158.24717129 240.12613881 -160 230 C-160.17015625 229.01128906 -160.3403125 228.02257812 -160.515625 227.00390625 C-163.43555753 213.20909679 -170.30372403 200.24599208 -178.02563477 188.56958008 C-179.2890625 186.57421875 -179.2890625 186.57421875 -181 183 C-179.88728369 179.28523938 -177.98183249 175.97053012 -176.13671875 172.5703125 C-170.08070856 161.27120888 -164.30467145 150.42951052 -161 138 C-160.77183594 137.23171875 -160.54367188 136.4634375 -160.30859375 135.671875 C-158.20324519 128.19273465 -157.84731255 120.87781035 -158.4921875 113.171875 C-159.70677722 94.25789461 -159.70677722 94.25789461 -154.86083984 88.42529297 C-149.40053976 84.06992396 -143.30052345 81.29220598 -136.94580078 78.48901367 C-132.06869957 76.02378574 -128.10237003 72.57009901 -124 69 C-122.6078125 67.86498047 -122.6078125 67.86498047 -121.1875 66.70703125 C-116.7963086 62.90394584 -112.89183595 58.90349209 -109.25 54.375 C-108.83403564 53.8581665 -108.41807129 53.34133301 -107.98950195 52.80883789 C-105.16784942 49.09775718 -103.18271507 45.34231823 -101.27734375 41.0859375 C-95.28885066 28.39946532 -95.28885066 28.39946532 -90 24 C-81.80747417 21.19402825 -72.94381017 22.2599706 -64.44140625 22.83886719 C-41.92371848 23.89318571 -18.25497388 12.16998259 0 0 Z " fill="#EE9B75" transform="translate(201,15)"/>
<path d="M0 0 C0.33 0 0.66 0 1 0 C1.02913072 4.37498593 1.04684286 8.74994674 1.0625 13.125 C1.07087891 14.3625 1.07925781 15.6 1.08789062 16.875 C1.09111328 18.07382813 1.09433594 19.27265625 1.09765625 20.5078125 C1.10289307 21.60754395 1.10812988 22.70727539 1.11352539 23.84033203 C1.0008558 26.97618105 0.58626376 29.92059383 0 33 C-5.2551577 32.57100754 -10.0442322 31.48765802 -15.125 30.0625 C-51.64318809 20.12216038 -90.49806497 26.54312068 -123.25 44.875 C-133.80008563 51.09715278 -143.10868185 58.6106111 -152 67 C-152.79921875 67.72316406 -153.5984375 68.44632812 -154.421875 69.19140625 C-163.0098202 77.27337379 -170.85402088 87.27647923 -175.875 97.984375 C-178 101 -178 101 -181.4140625 101.69140625 C-182.81824593 101.67305313 -184.22222837 101.62807196 -185.625 101.5625 C-193.83691415 101.60038657 -201.44559238 102.8955715 -209.4375 104.75 C-211.05229248 105.11073608 -211.05229248 105.11073608 -212.69970703 105.47875977 C-219.1523906 107.01617745 -224.78140686 109.09790594 -230.64477539 112.21582031 C-233 113 -233 113 -235.16943359 112.28735352 C-237.79312997 110.44222802 -239.56283149 108.18793152 -241.5625 105.6875 C-242.32691406 104.74261719 -243.09132813 103.79773438 -243.87890625 102.82421875 C-245.78095598 100.2916553 -247.43282878 97.74880831 -249 95 C-244.63372198 92.92747337 -240.25848314 90.87684555 -235.86669922 88.85888672 C-234.37823072 88.17402768 -232.89353166 87.4809779 -231.41015625 86.78515625 C-226.1910091 84.50120609 -220.8498386 83.13550887 -215.3125 81.875 C-214.53737061 81.69735107 -213.76224121 81.51970215 -212.96362305 81.33666992 C-209.23830248 80.53061998 -205.66958021 79.91092126 -201.85546875 79.796875 C-194.31201577 79.50493256 -194.31201577 79.50493256 -188.33984375 75.29296875 C-186.62190463 72.94016897 -185.10440015 70.48236785 -183.58203125 68 C-179.14957302 60.81811761 -172.92428854 54.9530308 -167 49 C-166.49210937 48.48808105 -165.98421875 47.97616211 -165.4609375 47.44873047 C-147.03866196 29.13112695 -123.51826401 16.99149996 -99 9 C-97.55173828 8.51273438 -97.55173828 8.51273438 -96.07421875 8.015625 C-93.39650931 7.19940253 -90.74057708 6.57260415 -88 6 C-86.71996094 5.72285156 -85.43992188 5.44570312 -84.12109375 5.16015625 C-56.59242518 -0.15260542 -26.63227583 1.44117726 0 10 C0 6.7 0 3.4 0 0 Z " fill="#E7BF6D" transform="translate(339,182)"/>
<path d="M0 0 C7.90620213 5.67891949 14.16524738 13.52010496 15.875 23.26171875 C17.27979283 35.5795338 14.8288331 46.42540279 7.37109375 56.390625 C4.50326109 59.85918763 1.49228563 63.14938728 -1.62890625 66.390625 C-2.263125 67.05320312 -2.89734375 67.71578125 -3.55078125 68.3984375 C-6.18603233 71.0919906 -8.71410817 73.45367442 -11.75390625 75.703125 C-18.1784929 81.70871687 -19.95331889 88.1689731 -20.25390625 96.703125 C-20.25934448 97.72563354 -20.25934448 97.72563354 -20.26489258 98.76879883 C-20.32700116 103.16014534 -20.9343376 105.88768575 -23.62890625 109.390625 C-26.31457922 110.73346149 -28.50637478 110.63350019 -31.50390625 110.703125 C-33.07785156 110.75919922 -33.07785156 110.75919922 -34.68359375 110.81640625 C-38.30442938 110.2929698 -39.38262409 109.20631357 -41.62890625 106.390625 C-45.08771607 99.47300536 -42.73609849 87.25977288 -40.640625 80.1484375 C-36.25098354 68.18285113 -26.83912995 59.8569332 -16.8671875 52.296875 C-14.48827156 50.27085235 -13.30162553 48.52791764 -11.87890625 45.765625 C-11.4715625 44.98960937 -11.06421875 44.21359375 -10.64453125 43.4140625 C-7.78320714 37.71342447 -7.6115801 31.4599296 -9.171875 25.21875 C-11.33322489 20.63222347 -15.04685325 18.30076204 -19.578125 16.2734375 C-26.58055732 14.24712546 -35.11161785 13.87023803 -41.94140625 16.765625 C-45.40459881 18.82400843 -47.89075979 21.71606918 -50.62890625 24.640625 C-55.86785029 30.09685244 -55.86785029 30.09685244 -59.94140625 30.265625 C-64.69146561 29.13849227 -67.15251378 27.4997571 -69.94140625 23.515625 C-71.2128157 19.58581398 -71.27782051 16.88337453 -69.6015625 13.02734375 C-63.87024875 2.56491782 -55.87412763 -2.31549913 -44.62890625 -5.609375 C-30.34392666 -9.72612768 -12.57446329 -7.69788837 0 0 Z " fill="#030303" transform="translate(311.62890625,290.609375)"/>
<path d="M0 0 C3.35304475 0.96613154 4.50187942 1.54560974 7.0625 3.625 C10.4774352 6.23193714 13.08333025 6.84424618 17.359375 6.640625 C21.00364599 5.7356718 23.56701072 3.55260045 26.546875 1.34375 C28.6875 0.0625 28.6875 0.0625 32.5625 0 C37.29773947 1.60998142 37.29773947 1.60998142 38.6875 4.0625 C39.36123909 7.56594325 39.46196746 9.87349387 37.46875 12.93359375 C31.41653483 19.57104671 24.16590424 22.21094116 15.3125 22.6875 C8.24454759 22.4616601 2.4500839 20.11830333 -3.3125 16.0625 C-6.16616409 12.99155184 -7.22298936 11.7002633 -7.8125 7.5 C-7.3125 4.0625 -7.3125 4.0625 -5.75 1.5625 C-3.3125 0.0625 -3.3125 0.0625 0 0 Z " fill="#050403" transform="translate(186.3125,150.9375)"/>
<path d="M0 0 C4.16541497 1.33324835 7.06755822 3.64610923 9.4375 7.3125 C11.2524849 11.0213822 11.6535754 13.86068916 11 18 C8.4151576 24.08467326 5.07739849 27.48521442 -1 30 C-5.80880219 30.68697174 -9.27558252 30.04275803 -13.421875 27.390625 C-16.90958521 24.3172962 -18.55830517 20.43159836 -19.37890625 15.9140625 C-19.68322117 10.7897919 -18.23590954 7.84810865 -15 4 C-10.67099339 -0.83830151 -6.11984204 -0.92753856 0 0 Z " fill="#040404" transform="translate(284,418)"/>
<path d="M0 0 C3.89202152 0.7784043 5.91291449 1.28104526 9.20703125 3.06640625 C10.33334961 3.6706543 10.33334961 3.6706543 11.48242188 4.28710938 C12.25134766 4.70798828 13.02027344 5.12886719 13.8125 5.5625 C14.60076172 5.98724609 15.38902344 6.41199219 16.20117188 6.84960938 C18.1373378 7.89396554 20.07005367 8.9442077 22 10 C18.66666667 16.66666667 15.33333333 23.33333333 12 30 C6.69100055 29.02006786 2.52893814 25.80079069 -2 23 C-1.34 15.41 -0.68 7.82 0 0 Z " fill="#E98E69" transform="translate(355,199)"/>
<path d="M0 0 C3.53796112 1.17932037 4.19590009 2.24423609 6.375 5.1875 C9.15686137 8.88483592 12.01164142 12.4683035 15 16 C11.83047153 19.26008643 8.60062011 22.22237877 5 25 C0.92838986 23.19948898 -2.53331753 20.5919358 -6.125 18 C-6.75792969 17.54882812 -7.39085938 17.09765625 -8.04296875 16.6328125 C-10.50942425 14.86282957 -12.84958086 13.15041914 -15 11 C-12.5749902 9.12902366 -10.1332018 7.2813211 -7.6875 5.4375 C-6.65206055 4.63795898 -6.65206055 4.63795898 -5.59570312 3.82226562 C-4.92861328 3.32275391 -4.26152344 2.82324219 -3.57421875 2.30859375 C-2.65515747 1.60947876 -2.65515747 1.60947876 -1.7175293 0.89624023 C-0.86735229 0.45260132 -0.86735229 0.45260132 0 0 Z " fill="#E98E69" transform="translate(76,286)"/>
<path d="M0 0 C2.18359375 1.50390625 2.18359375 1.50390625 4 4 C4.42806075 6.97280809 4.60551118 9.47478876 4.5625 12.4375 C4.58634766 13.18837891 4.61019531 13.93925781 4.63476562 14.71289062 C4.62363804 18.93024413 4.33960443 20.56530633 1.65625 24 C-1 26 -1 26 -4.0625 26.5625 C-7.80114166 25.8465899 -8.75487624 25.07102552 -11 22 C-11.59121214 18.98892529 -11.55865013 16.05958175 -11.5 13 C-11.51546875 12.19304687 -11.5309375 11.38609375 -11.546875 10.5546875 C-11.52159126 6.72420158 -11.46042207 4.64300324 -9.1875 1.46875 C-5.96971145 -0.69176517 -3.78357952 -0.54051136 0 0 Z " fill="#060503" transform="translate(141,141)"/>
<path d="M0 0 C3.09090398 0.80683866 4.17817267 1.92902958 6.03515625 4.53125 C6.463217 7.50405809 6.64066743 10.00603876 6.59765625 12.96875 C6.62150391 13.71962891 6.64535156 14.47050781 6.66992188 15.24414062 C6.65879429 19.46149413 6.37476068 21.09655633 3.69140625 24.53125 C1.03515625 26.53125 1.03515625 26.53125 -2.02734375 27.09375 C-5.76579255 26.37787683 -6.72285241 25.60448813 -8.96484375 22.53125 C-9.53134662 19.51932422 -9.47800052 16.58680741 -9.40234375 13.53125 C-9.41297852 12.32082031 -9.41297852 12.32082031 -9.42382812 11.0859375 C-9.38639715 7.59621915 -9.27477531 5.14355382 -7.68359375 2 C-5.30637354 -0.03144272 -3.04345642 0.04691262 0 0 Z " fill="#070604" transform="translate(267.96484375,140.46875)"/>
</svg>
